<?xml version="1.0" encoding="UTF-8" standalone="no"?>
<!-- Created with Inkscape (http://www.inkscape.org/) -->

<svg
   width="413.0675mm"
   height="318.3812mm"
   viewBox="0 0 413.0675 318.3812"
   version="1.1"
   id="svg1"
   xml:space="preserve"
   xmlns="http://www.w3.org/2000/svg"
   xmlns:svg="http://www.w3.org/2000/svg"><defs
     id="defs1" /><g
     id="layer1"
     transform="translate(-176.72094,-1462.4359)"><path
       style="opacity:1;fill:none;stroke:#ffffff;stroke-width:4.99999;stroke-linecap:butt;stroke-linejoin:miter;stroke-dasharray:none;stroke-opacity:1;stop-color:#000000;stop-opacity:1"
       d="m 549.9741,1542.3035 c 82.96426,47.4082 9.33896,153.832 -44.94393,197.2583 -56.92773,45.5422 -247.77767,59.3239 -296.08194,-5.0818 -82.42351,-109.898 21.07943,-219.9104 127.88471,-259.9624 65.10396,-24.4139 156.99348,0.8869 194.27293,41.9294 -6.17733,2.8643 -3.63019,15.546 1.33306,18.8549 3.06445,2.0429 13.79941,9.8034 17.53517,7.0016 0.13734,-0.103 2.45265,-2.9905 4.42678,-5.01 2.43157,-2.4875 8.06945,-5.8579 9.16905,-9.1567 1.4299,-4.2897 -11.80968,-16.4054 -14.57722,-17.7892 -3.8036,-1.9018 -14.20703,3.4815 -17.02309,5.493 -1.91368,1.3669 -1.00211,0.7806 -2.49555,2.6604"
       id="path174" /></g></svg>
