<?xml version="1.0" encoding="UTF-8" standalone="no"?>
<!-- Created with Inkscape (http://www.inkscape.org/) -->

<svg
   width="203.50366mm"
   height="299.49213mm"
   viewBox="0 0 203.50366 299.49213"
   version="1.1"
   id="svg1"
   xml:space="preserve"
   xmlns="http://www.w3.org/2000/svg"
   xmlns:svg="http://www.w3.org/2000/svg"><defs
     id="defs1" /><g
     id="layer1"
     transform="translate(-814.77022,-960.35422)"><path
       style="opacity:1;fill:none;stroke:#ffffff;stroke-width:4.99999;stroke-linecap:butt;stroke-linejoin:miter;stroke-dasharray:none;stroke-opacity:1;stop-color:#000000;stop-opacity:1"
       d="m 899.22481,1259.0392 c 7.23096,-21.1985 1.26996,-44.0266 -1.89492,-65.4526 -3.56783,-23.0307 -10.89453,-45.979 -9.3462,-69.4828 2.87067,-18.7149 15.28894,-33.9043 23.06119,-50.6647"
       id="path16" /><path
       style="opacity:1;fill:none;stroke:#ffffff;stroke-width:4.99999;stroke-linecap:butt;stroke-linejoin:miter;stroke-dasharray:none;stroke-opacity:1;stop-color:#000000;stop-opacity:1"
       d="m 977.39789,1002.3016 c 12.40953,3.2245 26.10311,10.6951 27.66921,24.8869 1.1311,11.3168 4.6887,21.8655 10.7045,31.4166 0.2082,11.7334 -13.2038,17.8292 -22.50354,22.0315 -16.11123,4.1309 -24.00503,21.8841 -40.54743,25.2696 -13.25082,3.3383 -28.24701,-3.235 -33.18159,-16.3103 -6.17505,-11.7489 -15.45298,-24.6721 -30.04254,-25.2618 -7.75607,-1.0044 -12.82614,-7.9622 -10.72591,-15.7494"
       id="path17" /><path
       style="opacity:1;fill:none;stroke:#ffffff;stroke-width:4.99999;stroke-linecap:butt;stroke-linejoin:miter;stroke-dasharray:none;stroke-opacity:1;stop-color:#000000;stop-opacity:1"
       d="m 907.46171,1075.7365 c -14.67295,7.0307 -32.46692,14.8994 -48.16747,6.1671 -11.0464,-7.6901 -23.38979,-11.341 -36.22791,-14.1246 -9.46881,-8.5715 -5.23481,-23.3471 -1.98346,-34.0599 1.31197,-15.2468 8.21979,-32.284 23.76971,-37.69019 8.74211,0.0474 17.07868,0.65752 23.95977,-6.32011"
       id="path18" /><path
       style="opacity:1;fill:none;stroke:#ffffff;stroke-width:4.99999;stroke-linecap:butt;stroke-linejoin:miter;stroke-dasharray:none;stroke-opacity:1;stop-color:#000000;stop-opacity:1"
       d="m 972.09777,1014.0537 c 7.98028,-9.9423 5.38995,-21.21559 -5.12983,-27.29687 -3.12129,-13.90083 -20.28735,-18.63239 -32.86246,-16.53366 -13.50091,2.6741 -27.38893,1.98178 -39.8566,-4.34806 -10.46038,-5.97837 -32.04071,-3.53449 -25.16432,12.83202 4.13811,12.76882 -13.07602,18.84211 -6.38381,32.07817 0.73475,13.3466 2.34099,29.5907 14.00197,38.1055 12.77025,5.7344 21.11941,-13.1622 34.16821,-8.2256 15.54558,4.2342 30.85275,13.3626 47.41948,10.9689 12.97262,-3.6603 2.72257,-18.6737 8.02516,-27.1935 1.67699,-3.6091 4.72776,-6.4615 5.7822,-10.3869 z"
       id="path19" /><path
       style="fill:none;stroke:#ffffff;stroke-width:1.2;stroke-linecap:butt;stroke-linejoin:miter;stroke-dasharray:none;stroke-opacity:1;stop-color:#000000"
       d="m 913.30947,1043.1676 c 0.9014,-4.4944 -0.32234,-9.0153 -0.20077,-13.5272"
       id="path142-7" /><path
       style="fill:none;stroke:#ffffff;stroke-width:1.2;stroke-linecap:butt;stroke-linejoin:miter;stroke-dasharray:none;stroke-opacity:1;stop-color:#000000"
       d="m 905.52672,1041.9322 c 1.22638,-4.3771 0.10056,-13.8966 7.53568,-11.8594"
       id="path143-8" /><path
       style="fill:none;stroke:#ffffff;stroke-width:1.2;stroke-linecap:butt;stroke-linejoin:miter;stroke-dasharray:none;stroke-opacity:1;stop-color:#000000"
       d="m 919.6098,1041.6851 c 1.33832,-5.4751 -1.18357,-11.9057 -7.41214,-12.4771"
       id="path144-4" /><path
       style="fill:none;stroke:#ffffff;stroke-width:1.2;stroke-linecap:butt;stroke-linejoin:miter;stroke-dasharray:none;stroke-opacity:1;stop-color:#000000"
       d="m 924.79828,1034.6436 c -0.22609,-6.1369 -7.96989,-5.5159 -12.23002,-5.5591"
       id="path145-5" /><path
       style="fill:none;stroke:#ffffff;stroke-width:1.2;stroke-linecap:butt;stroke-linejoin:miter;stroke-dasharray:none;stroke-opacity:1;stop-color:#000000"
       d="m 922.82171,1024.0195 c -4.46317,-1.8867 -9.54068,1.0461 -9.38871,5.5591"
       id="path146-0" /><path
       style="fill:none;stroke:#ffffff;stroke-width:1.2;stroke-linecap:butt;stroke-linejoin:miter;stroke-dasharray:none;stroke-opacity:1;stop-color:#000000"
       d="m 904.50756,1024.5445 c 3.08657,-1.8498 9.1202,0.8926 8.4313,4.787"
       id="path147-3" /><path
       style="fill:none;stroke:#ffffff;stroke-width:1.24885;stroke-linecap:butt;stroke-linejoin:miter;stroke-dasharray:none;stroke-opacity:1;stop-color:#000000"
       d="m 903.68852,1032.1507 c 0.81452,-4.2705 6.14723,-3.5891 9.34456,-3.0512"
       id="path148-6" /><path
       style="opacity:1;fill:none;stroke:#ffffff;stroke-width:1.2;stroke-linecap:butt;stroke-linejoin:miter;stroke-dasharray:none;stroke-opacity:1;stop-color:#000000;stop-opacity:1"
       d="m 924.84924,1033.9968 c 2.36414,0.7231 12.46966,-1.1786 6.43512,0.1363"
       id="path151" /><path
       style="opacity:1;fill:none;stroke:#ffffff;stroke-width:1.2;stroke-linecap:butt;stroke-linejoin:miter;stroke-dasharray:none;stroke-opacity:1;stop-color:#000000;stop-opacity:1"
       d="m 922.02978,1029.9957 c 4.49336,0.9699 10.23823,-8.5268 6.13655,-2.3475"
       id="path152" /><path
       style="opacity:1;fill:none;stroke:#ffffff;stroke-width:1.2;stroke-linecap:butt;stroke-linejoin:miter;stroke-dasharray:none;stroke-opacity:1;stop-color:#000000;stop-opacity:1"
       d="m 920.25701,1023.15 c 0.12576,-2.1903 3.96863,-9.7409 2.47864,-5.2735"
       id="path154" /><path
       style="opacity:1;fill:none;stroke:#ffffff;stroke-width:1.2;stroke-linecap:butt;stroke-linejoin:miter;stroke-dasharray:none;stroke-opacity:1;stop-color:#000000;stop-opacity:1"
       d="m 915.8519,1024.7373 c 1.44368,-2.216 -2.02136,-11.7139 -1.44136,-7.9054"
       id="path155" /><path
       style="opacity:1;fill:none;stroke:#ffffff;stroke-width:1.2;stroke-linecap:butt;stroke-linejoin:miter;stroke-dasharray:none;stroke-opacity:1;stop-color:#000000;stop-opacity:1"
       d="m 909.34411,1024.4316 c 0.56487,-4.3799 -1.09643,-8.4883 -1.27211,-8.244"
       id="path156" /><path
       style="opacity:1;fill:none;stroke:#ffffff;stroke-width:1.2;stroke-linecap:butt;stroke-linejoin:miter;stroke-dasharray:none;stroke-opacity:1;stop-color:#000000;stop-opacity:1"
       d="m 905.05634,1024.3822 c -0.58513,-2.3937 -0.73187,-5.9454 -2.83898,-7.4686"
       id="path157" /><path
       style="opacity:1;fill:none;stroke:#ffffff;stroke-width:1.2;stroke-linecap:butt;stroke-linejoin:miter;stroke-dasharray:none;stroke-opacity:1;stop-color:#000000;stop-opacity:1"
       d="m 905.94097,1028.9877 c -6.36863,-2.5834 -8.59578,-5.2204 -5.50323,-2.5766"
       id="path158" /><path
       style="opacity:1;fill:none;stroke:#ffffff;stroke-width:1.2;stroke-linecap:butt;stroke-linejoin:miter;stroke-dasharray:none;stroke-opacity:1;stop-color:#000000;stop-opacity:1"
       d="m 903.85329,1031.6233 c -2.46932,-0.1572 -4.93,-0.6997 -7.41408,-0.3713"
       id="path159" /><path
       style="opacity:1;fill:none;stroke:#ffffff;stroke-width:1.2;stroke-linecap:butt;stroke-linejoin:miter;stroke-dasharray:none;stroke-opacity:1;stop-color:#000000;stop-opacity:1"
       d="m 906.29918,1034.768 c -6.99623,-0.1256 -11.03259,1.2214 -10.133,0.9609"
       id="path160" /><path
       style="opacity:1;fill:none;stroke:#ffffff;stroke-width:1.2;stroke-linecap:butt;stroke-linejoin:miter;stroke-dasharray:none;stroke-opacity:1;stop-color:#000000;stop-opacity:1"
       d="m 919.84691,1038.9971 c 6.21115,0.4082 8.30092,0.6127 8.52398,0.1851"
       id="path161" /><path
       style="opacity:1;fill:none;stroke:#ffffff;stroke-width:1.2;stroke-linecap:butt;stroke-linejoin:miter;stroke-dasharray:none;stroke-opacity:1;stop-color:#000000;stop-opacity:1"
       d="m 914.36501,1016.0349 c -0.22709,0.2224 0.002,0.8359 0.41693,0.4633"
       id="path162" /><path
       style="opacity:1;fill:none;stroke:#ffffff;stroke-width:1.2;stroke-linecap:butt;stroke-linejoin:miter;stroke-dasharray:none;stroke-opacity:1;stop-color:#000000;stop-opacity:1"
       d="m 923.49528,1017.1158 c -0.49276,0.097 -0.74017,0.4837 -1.01554,0.8186"
       id="path163" /><path
       style="opacity:1;fill:none;stroke:#ffffff;stroke-width:1.2;stroke-linecap:butt;stroke-linejoin:miter;stroke-dasharray:none;stroke-opacity:1;stop-color:#000000;stop-opacity:1"
       d="m 923.54169,1017.1172 c 0.0247,0.024 -0.05,0.064 -0.0269,0.086"
       id="path164" /><path
       style="opacity:1;fill:none;stroke:#ffffff;stroke-width:0.791245;stroke-linecap:butt;stroke-linejoin:miter;stroke-dasharray:none;stroke-opacity:1;stop-color:#000000;stop-opacity:1"
       d="m 903.48466,1017.808 c 0.48528,-4.7758 -3.18458,1.8712 0.0709,-0.1379"
       id="path165" /><path
       style="fill:none;stroke:#ffffff;stroke-width:0.806684;stroke-linecap:butt;stroke-linejoin:miter;stroke-dasharray:none;stroke-opacity:1;stop-color:#000000"
       d="m 897.14289,1031.4727 c 0.54318,-4.7228 -3.36151,1.8458 0.0745,-0.1353"
       id="path165-5" /><path
       style="opacity:1;fill:none;stroke:#ffffff;stroke-width:1.2;stroke-linecap:butt;stroke-linejoin:miter;stroke-dasharray:none;stroke-opacity:1;stop-color:#000000;stop-opacity:1"
       d="m 896.3176,1031.6491 c -0.0944,-0.8437 -0.46308,-1.4773 0.77527,-1.0651"
       id="path166" /><path
       style="opacity:1;fill:none;stroke:#ffffff;stroke-width:1.2;stroke-linecap:butt;stroke-linejoin:miter;stroke-dasharray:none;stroke-opacity:1;stop-color:#000000;stop-opacity:1"
       d="m 914.2106,1016.0195 c 0.1822,-0.9811 1.20356,-0.4726 1.28176,0.1698"
       id="path167" /><path
       style="opacity:1;fill:none;stroke:#ffffff;stroke-width:1.2;stroke-linecap:butt;stroke-linejoin:miter;stroke-dasharray:none;stroke-opacity:1;stop-color:#000000;stop-opacity:1"
       d="m 928.43264,1027.323 c 0.58331,0.1304 2.2309,-1.1423 1.29712,-1.6369"
       id="path168" /><path
       style="opacity:1;fill:none;stroke:#ffffff;stroke-width:1.2;stroke-linecap:butt;stroke-linejoin:miter;stroke-dasharray:none;stroke-opacity:1;stop-color:#000000;stop-opacity:1"
       d="m 930.84159,1034.0866 c -0.25943,1.9132 3.55292,-0.5508 2.19276,0.4323"
       id="path169" /></g></svg>
